HIERARCHY
ROOT Hips
{
	OFFSET 0.00000 0.00000 0.00000
	CHANNELS 6 Xposition Yposition Zposition Zrotation Yrotation Xrotation 
	JOINT LHipJoint
	{
		OFFSET 0 0 0
		CHANNELS 3 Zrotation Yrotation Xrotation
		JOINT LeftUpLeg
		{
			OFFSET 1.41496 -1.84582 0.78394
			CHANNELS 3 Zrotation Yrotation Xrotation
			JOINT LeftLeg
			{
				OFFSET 2.58040 -7.08960 0.00000
				CHANNELS 3 Zrotation Yrotation Xrotation
				JOINT LeftFoot
				{
					OFFSET 2.64719 -7.27309 0.00000
					CHANNELS 3 Zrotation Yrotation Xrotation
					JOINT LeftToeBase
					{
						OFFSET 0.20718 -0.56921 2.20259
						CHANNELS 3 Zrotation Yrotation Xrotation
						End Site
						{
							OFFSET 0.00000 -0.00000 1.14243
						}
					}
				}
			}
		}
	}
	JOINT RHipJoint
	{
		OFFSET 0 0 0
		CHANNELS 3 Zrotation Yrotation Xrotation
		JOINT RightUpLeg
		{
			OFFSET -1.40551 -1.84582 0.78394
			CHANNELS 3 Zrotation Yrotation Xrotation
			JOINT RightLeg
			{
				OFFSET -2.56572 -7.04926 0.00000
				CHANNELS 3 Zrotation Yrotation Xrotation
				JOINT RightFoot
				{
					OFFSET -2.57974 -7.08778 0.00000
					CHANNELS 3 Zrotation Yrotation Xrotation
					JOINT RightToeBase
					{
						OFFSET -0.26704 -0.73369 2.20815
						CHANNELS 3 Zrotation Yrotation Xrotation
						End Site
						{
							OFFSET -0.00000 -0.00000 1.16246
						}
					}
				}
			}
		}
	}
	JOINT LowerBack
	{
		OFFSET 0 0 0
		CHANNELS 3 Zrotation Yrotation Xrotation
		JOINT Spine
		{
			OFFSET -0.04690 2.05196 -0.07017
			CHANNELS 3 Zrotation Yrotation Xrotation
			JOINT Spine1
			{
				OFFSET 0.04085 2.05260 0.00800
				CHANNELS 3 Zrotation Yrotation Xrotation
				JOINT Neck
				{
					OFFSET 0 0 0
					CHANNELS 3 Zrotation Yrotation Xrotation
					JOINT Neck1
					{
						OFFSET -0.03582 1.80995 0.19301
						CHANNELS 3 Zrotation Yrotation Xrotation
						JOINT Head
						{
							OFFSET 0.00952 1.80195 -0.36389
							CHANNELS 3 Zrotation Yrotation Xrotation
							End Site
							{
								OFFSET 0.00392 1.85062 -0.14494
							}
						}
					}
				}
				JOINT LeftShoulder
				{
					OFFSET 0 0 0
					CHANNELS 3 Zrotation Yrotation Xrotation
					JOINT LeftArm
					{
						OFFSET 3.55224 1.39726 -0.13667
						CHANNELS 3 Zrotation Yrotation Xrotation
						JOINT LeftForeArm
						{
							OFFSET 5.14507 -0.00000 -0.00000
							CHANNELS 3 Zrotation Yrotation Xrotation
							JOINT LeftHand
							{
								OFFSET 3.50646 -0.00000 0.00000
								CHANNELS 3 Zrotation Yrotation Xrotation
								JOINT LeftFingerBase
								{
									OFFSET 0 0 0
									CHANNELS 3 Zrotation Yrotation Xrotation
									JOINT LeftHandIndex1
									{
										OFFSET 0.62997 -0.00000 0.00000
										CHANNELS 3 Zrotation Yrotation Xrotation
										End Site
										{
											OFFSET 0.50790 -0.00000 0.00000
										}
									}
								}
								JOINT LThumb
								{
									OFFSET 0 0 0
									CHANNELS 3 Zrotation Yrotation Xrotation
									End Site
									{
										OFFSET 0.51565 -0.00000 0.51565
									}
								}
							}
						}
					}
				}
				JOINT RightShoulder
				{
					OFFSET 0 0 0
					CHANNELS 3 Zrotation Yrotation Xrotation
					JOINT RightArm
					{
						OFFSET -3.06467 1.61290 -0.28813
						CHANNELS 3 Zrotation Yrotation Xrotation
						JOINT RightForeArm
						{
							OFFSET -5.23200 -0.00000 -0.00000
							CHANNELS 3 Zrotation Yrotation Xrotation
							JOINT RightHand
							{
								OFFSET -3.65641 -0.00000 0.00000
								CHANNELS 3 Zrotation Yrotation Xrotation
								JOINT RightFingerBase
								{
									OFFSET 0 0 0
									CHANNELS 3 Zrotation Yrotation Xrotation
									JOINT RightHandIndex1
									{
										OFFSET -0.65681 -0.00000 0.00000
										CHANNELS 3 Zrotation Yrotation Xrotation
										End Site
										{
											OFFSET -0.52953 -0.00000 0.00000
										}
									}
								}
								JOINT RThumb
								{
									OFFSET 0 0 0
									CHANNELS 3 Zrotation Yrotation Xrotation
									End Site
									{
										OFFSET -0.53762 -0.00000 0.53762
									}
								}
							}
						}
					}
				}
			}
		}
	}
}
MOTION
Frames: 11
Frame Time: .0083333
1.3362 16.3255 3.5798 -14.8471 21.2174 7.9555 0.0000 0.0000 0.0000 -29.6593 -8.8747 -41.1152 6.5064 14.9017 46.9817 0.2839 -8.8556 -10.5793 4.4818 12.7754 38.5333 0.0000 0.0000 0.0000 17.7504 -5.1933 -13.0455 -16.0058 -19.6131 78.2489 -0.1342 -8.8398 8.4668 -2.5294 9.8911 -28.6249 8.8672 0.7758 14.7670 6.2161 3.1548 -0.1430 1.0193 1.3133 -8.3886 -1.3618 -1.2274 -18.8591 -1.6869 -1.0817 8.0501 -0.4261 -0.7028 5.4679 0.0000 0.0000 0.0000 -91.9599 43.4503 35.5127 126.0006 -54.4865 -90.6002 -0.0000 0.0000 -23.7941 20.9854 -7.0604 -2.6993 -7.1250 0.0000 -0.0000 -4.2424 22.4300 2.3089 0.0000 0.0000 0.0000 85.4245 -23.6967 26.8172 -87.7105 59.9802 -58.0174 0.0000 -0.0000 -8.1020 -23.8692 9.5987 -4.2199 7.1250 -0.0000 -0.0000 2.2096 -19.5065 1.3459
1.4242 16.2152 4.1088 -13.7676 21.6862 8.2164 0.0000 0.0000 0.0000 -30.7383 -9.4409 -39.0059 6.8189 15.1774 48.1859 0.6093 -8.2449 -14.2041 4.6013 12.9202 39.0704 0.0000 0.0000 0.0000 15.6001 -4.9583 -15.6837 -17.1369 -19.8023 81.6024 -0.0675 -8.5521 7.2313 -2.5216 9.8770 -28.5793 7.9578 0.6161 14.6991 5.8175 2.7494 -0.2638 1.1796 1.1402 -8.5131 -1.4747 -1.2108 -18.8245 -1.5498 -1.0505 8.0060 -0.3609 -0.6801 5.4497 -0.0000 -0.0000 0.0000 -92.3793 41.4565 34.9782 126.8728 -54.1815 -91.3088 -0.0000 0.0000 -23.4394 20.8964 -7.1554 -2.7227 -7.1250 0.0000 -0.0000 -4.3077 22.3335 2.3541 -0.0000 -0.0000 0.0000 85.9934 -24.3669 25.7469 -83.3008 59.8297 -54.2016 0.0000 -0.0000 -8.0568 -24.1121 9.6390 -4.2858 7.1250 -0.0000 -0.0000 2.0380 -19.4427 1.2442
1.5099 16.1118 4.6289 -12.6314 22.2193 8.6163 0.0000 0.0000 0.0000 -31.8196 -9.9987 -36.9913 7.1081 15.4223 49.2821 0.9578 -7.8407 -17.5213 4.6008 12.9196 39.0683 0.0000 0.0000 0.0000 13.4338 -4.6475 -18.6043 -18.1935 -19.9216 84.7116 -0.0129 -8.2241 6.0231 -2.5107 9.8573 -28.5158 7.0354 0.4566 14.5986 5.4100 2.3388 -0.4049 1.3427 0.9661 -8.6351 -1.5932 -1.2216 -18.8490 -1.4173 -1.0527 7.9503 -0.2999 -0.6741 5.4370 -0.0000 0.0000 0.0000 -92.6820 39.1219 34.6276 127.8370 -53.8315 -92.0889 -0.0000 0.0000 -23.1679 20.7731 -7.2640 -2.7460 -7.1250 0.0000 -0.0000 -4.3980 22.2244 2.4147 -0.0000 0.0000 0.0000 86.5894 -25.0831 24.5332 -79.1338 59.5491 -50.6038 0.0000 -0.0000 -7.8681 -24.4446 9.7272 -4.3918 7.1250 -0.0000 -0.0000 1.8049 -19.3186 1.1067
1.5939 16.0169 5.1415 -11.5229 22.7913 9.1088 0.0000 0.0000 0.0000 -32.8192 -10.4457 -35.1075 7.3749 15.6397 50.2785 1.2919 -7.7589 -20.3210 4.5600 12.8705 38.8857 0.0000 0.0000 0.0000 11.3499 -4.2511 -21.7653 -19.1494 -19.9826 87.5122 0.0328 -7.9228 4.8298 -2.5050 9.8469 -28.4825 6.1618 0.3092 14.4637 5.0207 1.9521 -0.5585 1.4962 0.8036 -8.7436 -1.7172 -1.2638 -18.9309 -1.2897 -1.0931 7.8967 -0.2439 -0.6875 5.4342 -0.0000 0.0000 0.0000 -92.8913 36.4847 34.4753 128.9414 -53.4136 -92.9782 -0.0000 0.0000 -22.9609 20.6339 -7.3643 -2.7633 -7.1250 0.0000 -0.0000 -4.4999 22.1253 2.4812 -0.0000 0.0000 0.0000 87.2018 -25.8870 23.1968 -75.3978 59.1788 -47.3890 0.0000 -0.0000 -7.5982 -24.8497 9.8132 -4.5131 7.1250 -0.0000 -0.0000 1.5205 -19.1898 0.9366
1.6770 15.9310 5.6490 -10.5105 23.3922 9.6333 0.0000 0.0000 0.0000 -33.6727 -10.7044 -33.3176 7.6180 15.8310 51.1748 1.6032 -8.0269 -22.6697 4.4921 12.7879 38.5795 0.0000 0.0000 0.0000 9.4309 -3.7749 -25.0930 -19.9815 -20.0000 89.9458 0.0720 -7.7046 3.6511 -2.5095 9.8552 -28.5091 5.3894 0.1755 14.2982 4.6710 1.6029 -0.7150 1.6296 0.6575 -8.8307 -1.8412 -1.3353 -19.0460 -1.1677 -1.1706 7.8487 -0.1936 -0.7195 5.4384 0.0000 -0.0000 0.0000 -93.0328 33.6127 34.5154 130.2266 -52.9037 -94.0067 -0.0000 0.0000 -22.7758 20.4942 -7.4393 -2.7706 -7.1250 0.0000 -0.0000 -4.6020 22.0530 2.5454 0.0000 -0.0000 0.0000 87.8139 -26.8178 21.7927 -72.2538 58.7759 -44.6945 0.0000 -0.0000 -7.3523 -25.3150 9.8765 -4.6385 7.1250 -0.0000 -0.0000 1.1930 -19.0794 0.7377
1.7619 15.8557 6.1543 -9.6374 24.0118 10.1248 0.0000 0.0000 0.0000 -34.3361 -10.7345 -31.5630 7.8302 15.9929 51.9488 1.8728 -8.6138 -24.5391 4.3778 12.6468 38.0605 0.0000 0.0000 0.0000 7.7287 -3.2273 -28.4793 -20.6656 -19.9894 91.9464 0.1074 -7.6093 2.4730 -2.5275 9.8878 -28.6141 4.7485 0.0531 14.1174 4.3730 1.2958 -0.8630 1.7365 0.5285 -8.8942 -1.9533 -1.4279 -19.1852 -1.0558 -1.2768 7.8205 -0.1516 -0.7661 5.4529 0.0000 0.0000 0.0000 -93.1379 30.5774 34.7314 131.6971 -52.2877 -95.1748 -0.0000 0.0000 -22.5761 20.3762 -7.4687 -2.7641 -7.1250 0.0000 -0.0000 -4.6880 22.0283 2.5960 0.0000 0.0000 0.0000 88.4080 -27.8992 20.4073 -69.8055 58.4015 -42.6049 0.0000 -0.0000 -7.2287 -25.8369 9.9187 -4.7677 7.1250 -0.0000 -0.0000 0.8249 -18.9857 0.5117
1.8523 15.7923 6.6603 -8.9107 24.6284 10.5460 0.0000 0.0000 0.0000 -34.8077 -10.5314 -29.7793 7.9969 16.1170 52.5515 2.0950 -9.4068 -25.9888 4.2416 12.4751 37.4341 0.0000 0.0000 0.0000 6.2470 -2.6166 -31.8346 -21.1848 -19.9663 93.4661 0.1389 -7.6376 1.3185 -2.5609 9.9478 -28.8079 4.2363 -0.0614 13.9177 4.1292 1.0253 -0.9936 1.8212 0.4139 -8.9241 -2.0447 -1.5245 -19.3337 -0.9556 -1.3910 7.8196 -0.1178 -0.8170 5.4776 0.0000 -0.0000 0.0000 -93.2345 27.4775 35.0937 133.3547 -51.5495 -96.4797 -0.0000 0.0000 -22.3510 20.2861 -7.4535 -2.7452 -7.1250 0.0000 -0.0000 -4.7537 22.0491 2.6303 0.0000 -0.0000 0.0000 88.9493 -29.1341 19.1399 -68.1013 58.1081 -41.1557 0.0000 -0.0000 -7.3388 -26.3165 9.9424 -4.8809 7.1250 -0.0000 -0.0000 0.4861 -18.9149 0.3023
1.9518 15.7418 7.1690 -8.2997 25.2347 10.8833 0.0000 0.0000 0.0000 -35.1332 -10.1240 -27.8832 8.0978 16.1907 52.9142 2.2610 -10.2808 -27.0344 4.0491 12.2254 36.5342 0.0000 0.0000 0.0000 4.9494 -1.9675 -35.0792 -21.5278 -19.9439 94.4709 0.1670 -7.7730 0.2171 -2.5962 10.0107 -29.0113 3.8309 -0.1807 13.7050 3.9297 0.7702 -1.1070 1.8895 0.3037 -8.9252 -2.1017 -1.6051 -19.4755 -0.8750 -1.4900 7.8501 -0.0943 -0.8610 5.5109 -0.0000 -0.0000 0.0000 -93.3432 24.4096 35.5632 135.1721 -50.6839 -97.8945 -0.0000 0.0000 -22.1041 20.2319 -7.4286 -2.7282 -7.1250 0.0000 -0.0000 -4.7933 22.0784 2.6492 -0.0000 -0.0000 0.0000 89.4026 -30.5149 18.0899 -67.1267 57.9278 -40.3290 0.0000 -0.0000 -7.6929 -26.7185 9.9921 -4.9914 7.1250 -0.0000 -0.0000 0.2043 -18.8217 0.1275
2.0626 15.7059 7.6826 -7.7285 25.8079 11.1755 0.0000 0.0000 0.0000 -35.3895 -9.5663 -25.8317 8.1118 16.2009 52.9645 2.3616 -11.1416 -27.6693 3.8045 11.8957 35.3639 0.0000 0.0000 0.0000 3.7576 -1.2964 -38.1818 -21.6888 -19.9315 94.9433 0.1915 -7.9827 -0.8065 -2.6238 10.0595 -29.1697 3.4478 -0.3096 13.4607 3.7588 0.5078 -1.2103 1.9762 0.1901 -8.8955 -2.1202 -1.6515 -19.6069 -0.8165 -1.5500 7.9229 -0.0802 -0.8870 5.5556 -0.0000 0.0000 0.0000 -93.4596 21.4723 36.1167 137.1238 -49.6846 -99.3937 -0.0000 0.0000 -21.9197 20.1815 -7.3774 -2.7022 -7.1250 0.0000 -0.0000 -4.8301 22.1353 2.6634 -0.0000 0.0000 0.0000 89.7265 -32.0163 17.3387 -66.8248 57.8700 -40.0732 0.0000 -0.0000 -8.2495 -26.9824 10.0689 -5.0867 7.1250 -0.0000 -0.0000 0.0224 -18.7107 0.0140
2.1863 15.6864 8.2015 -7.1263 26.3377 11.4723 0.0000 0.0000 0.0000 -35.6476 -8.9223 -23.6019 8.0220 16.1354 52.6419 2.3884 -11.9103 -27.8698 3.5060 11.4723 33.8898 0.0000 0.0000 0.0000 2.6061 -0.6342 -41.1284 -21.6645 -19.9334 94.8717 0.2135 -8.2499 -1.7306 -2.6486 10.1032 -29.3115 3.0199 -0.4582 13.1766 3.6026 0.2126 -1.3158 2.1093 0.0634 -8.8431 -2.1005 -1.6473 -19.7321 -0.7846 -1.5488 8.0482 -0.0747 -0.8844 5.6153 0.0000 -0.0000 0.0000 -93.5694 18.7480 36.7265 139.1717 -48.5530 -100.9422 -0.0000 0.0000 -21.8699 20.1314 -7.3192 -2.6738 -7.1250 0.0000 -0.0000 -4.8668 22.1995 2.6766 0.0000 -0.0000 0.0000 89.8810 -33.6047 16.9340 -67.1124 57.9250 -40.3168 0.0000 -0.0000 -8.9137 -27.0935 10.1939 -5.1734 7.1250 -0.0000 -0.0000 -0.0481 -18.5607 -0.0303
2.3247 15.6867 8.7277 -6.4963 26.8357 11.7919 0.0000 0.0000 0.0000 -35.9013 -8.2393 -21.1984 7.8232 15.9877 51.9235 2.3333 -12.5318 -27.5956 3.1476 10.9303 32.0450 0.0000 0.0000 0.0000 1.5229 -0.0053 -43.8798 -21.4467 -19.9497 94.2331 0.2356 -8.5870 -2.5493 -2.6615 10.1258 -29.3852 2.5513 -0.6407 12.8420 3.4632 -0.1324 -1.4358 2.2916 -0.0852 -8.7733 -2.0321 -1.5821 -19.8519 -0.7922 -1.4735 8.2300 -0.0821 -0.8478 5.6914 -0.0000 -0.0000 0.0000 -93.6334 16.3107 37.3885 141.2713 -47.2984 -102.5009 -0.0000 0.0000 -22.0369 20.0874 -7.2961 -2.6591 -7.1250 0.0000 -0.0000 -4.8991 22.2262 2.6915 -0.0000 -0.0000 0.0000 89.8416 -35.2511 16.8871 -67.8936 58.0704 -40.9793 0.0000 -0.0000 -9.5573 -27.0670 10.3844 -5.2626 7.1250 -0.0000 -0.0000 -0.0169 -18.3511 -0.0107
